{"title":"Man Of Steel 2013 CAMRip * FULL MOVIE ENGLISH Exclusive* â–ºNaim37","uid":8586128,"size":1208395031,"categoryP":"video","categoryS":"movies","magnet":"?xt=urn:btih:79d63d5b1ab6bc2b0e7e4cc57085103193a7507b&amp;dn=Man+Of+Steel+2013+CAMRip+%2A+FULL+MOVIE+ENGLISH+Exclusive%2A+%E2%96%BANaim37&amp;tr=udp%3A%2F%2Ftracker.openbittorrent.com%3A80&amp;tr=udp%3A%2F%2Fopen.demonii.com%3A1337&amp;tr=udp%3A%2F%2Ftracker.coppersurfer.tk%3A6969&amp;tr=udp%3A%2F%2Fexodus.desync.com%3A6969","seeders":1,"leechers":0,"uploader":"Naim376","files":1,"time":1371532049,"description":"Man.Of.Steel.2013CAMRip Full Movie ENG -Naim376.mkv\nFormat                           : Matroska\nFile size                        : 1.13 GiB\nDuration                         : 2h 12mn\nOverall bit rate                 : 1 214 Kbps\nWriting application              : Lavf53.24.2\nWriting library                  : Lavf53.24.2\n\nVideo Info\n\nCode\nID                               : 1\nFormat                           : AVC\nFormat/Info                      : Advanced Video Codec\nFormat profile                   : &lt;a class=&quot;__cf_email__&quot; href=&quot;/cdn-cgi/l/email-protection&quot; data-cfemail=&quot;c381a2b0a6afaaada6838ff0edf2&quot;&gt;[email&amp;#160;protected]&lt;/a&gt;&lt;script cf-hash='f9e31' type=&quot;text/javascript&quot;&gt;\n/* &lt;![CDATA[ */!function(){try{var t=&quot;currentScript&quot;in document?document.currentScript:function(){for(var t=document.getElementsByTagName(&quot;script&quot;),e=t.length;e--;)if(t[e].getAttribute(&quot;cf-hash&quot;))return t[e]}();if(t&amp;&amp;t.previousSibling){var e,r,n,i,c=t.previousSibling,a=c.getAttribute(&quot;data-cfemail&quot;);if(a){for(e=&quot;&quot;,r=parseInt(a.substr(0,2),16),n=2;a.length-n;n+=2)i=parseInt(a.substr(n,2),16)^r,e+=String.fromCharCode(i);e=document.createTextNode(e),c.parentNode.replaceChild(e,c)}}}catch(u){}}();/* ]]&gt; */&lt;/script&gt;\nFormat settings, CABAC           : No\nFormat settings, ReFrames        : 1 frame\nCodec ID                         : V_MPEG4/ISO/AVC\nDuration                         : 2h 12mn\nBit rate                         : 1 020 Kbps\nWidth                            : 1 280 pixels\nHeight                           : 720 pixels\nDisplay aspect ratio             : 16:9\nOriginal display aspect ratio    : 16:9\nFrame rate mode                  : Variable\nFrame rate                       : 25.000 fps\nColor space                      : YUV\nChroma subsampling               : 4:2:0\nBit depth                        : 8 bits\nScan type                        : Progressive\nBits/(Pixel*Frame)               : 0.044\nStream size                      : 947 MiB (82%)\nWriting library                  : x264 core 118\n\nScreenShot\n\n\n\n\n\nAudio Info\n\nCode\nID                               : 2\nFormat                           : AC-3\nFormat/Info                      : Audio Coding 3\nMode extension                   : CM (complete main)\nCodec ID                         : A_AC3\nDuration                         : 2h 12mn\nBit rate mode                    : Constant\nBit rate                         : 192 Kbps\nChannel(s)                       : 2 channels\nChannel positions                : Front: L R\nSampling rate                    : 48.0 KHz\nBit depth                        : 16 bits\nCompression mode                 : Lossy\nStream size                      : 182 MiB (16%)\nLanguage                         : English\n","torrent":{"xt":"urn:btih:79d63d5b1ab6bc2b0e7e4cc57085103193a7507b","amp;dn":"Man+Of+Steel+2013+CAMRip+%2A+FULL+MOVIE+ENGLISH+Exclusive%2A+%E2%96%BANaim37","amp;tr":["udp%3A%2F%2Ftracker.openbittorrent.com%3A80","udp%3A%2F%2Fopen.demonii.com%3A1337","udp%3A%2F%2Ftracker.coppersurfer.tk%3A6969","udp%3A%2F%2Fexodus.desync.com%3A6969"],"infoHash":"79d63d5b1ab6bc2b0e7e4cc57085103193a7507b","infoHashBuffer":{"type":"Buffer","data":[121,214,61,91,26,182,188,43,14,126,76,197,112,133,16,49,147,167,80,123]},"announce":[],"urlList":[]}}